<svg xmlns="http://www.w3.org/2000/svg" width="1369" height="756"><path fill="#60BB23" d="M0 0h1367.83c.6.954.96 1.826 1.05 2.952 1.09 13.412.12 27.558.12 41.057l.01 84.519-.01 452.43.01 125.186-.01 32.527c0 4.733.61 10.379-.19 14.982-.14.846-.53 1.626-.98 2.347H0z"/><path fill="#FEFEFE" d="m986.188 211.56 182.432-.515c.22.44.41.826.55 1.293 1.34 4.227.36 64.754.36 74.007.01 77.617.91 155.345-.03 232.949-.03 2.209.02 3.988-1.03 6.007l-40.69.011c.36-.565.68-1.167.85-1.815 1.35-5.081.31-45.142.31-53.564l.01-165.679c0-7.951 1.38-48.108-1.14-52.251l-744.45 1.293-143.48.144-.002 271.864-40.662.008-.005-312.236z"/><path fill="#FEFEFE" d="M534.449 344.382a62 62 0 0 1 1.962-.16c9.284-.598 17.61 1.116 24.701 7.481 8.646 7.76 12.016 18.981 12.537 30.261.575 12.431-2.043 25.789-10.729 35.179-5.595 6.049-12.903 9.861-21.214 10.089-10.1.278-16.953-4.587-23.994-11.129l.001 20.719-.016 18.255-21.392.03-.027-109.023 19.757-.057.021 10.925c4.905-6.535 10.674-10.19 18.393-12.57"/><path fill="#60BB23" d="M530.601 360.514c3.68-.392 6.669-.626 10.116.902 4.553 2.017 7.658 5.931 9.436 10.496 3.14 8.062 3.048 20.412-.435 28.335-2.37 5.392-5.418 8.205-10.859 10.312-3.04.428-5.707.428-8.641-.604-4.573-1.607-8.038-5.365-10.042-9.692-3.681-7.946-4.053-20.189-.863-28.348 2.277-5.825 5.66-8.91 11.288-11.401"/><path fill="#FEFEFE" d="M1014.19 344.578c7.31-1.028 16-.786 22.35 3.396 2.7 1.779 5.74 4.817 6.38 8.09 5.94-3.062 8.99-8.593 16.01-10.723 7.36-2.234 16.39-1.939 23.25 1.754 5.08 2.739 8.52 7.439 10.15 12.928.89 3.018 1.29 6.153 1.47 9.289.39 6.853.97 51.902-1.09 55.75l-21.19.019c2.33-4.267 1.54-51.16.02-57.658-.59-2.512-1.97-4.549-4.26-5.848-2.84-1.613-6.29-1.79-9.38-.852-20.14 6.106-6.5 41.824-12.34 52.365-.07.116-.14.226-.21.339.34.553.64 1.049.83 1.676.84 2.877.79 7.312-.64 9.953l-21.51.025c.06-.108.13-.214.19-.325 2.23-4.302 1.4-53.271-.42-58.593-.76-2.224-2.71-4.233-4.86-5.175-3.22-1.406-8.27-.847-11.35.608-16.838 7.949-4.28 49.326-9.72 63.031-.057.146-.126.288-.189.431l-21.525.022c.367-.592.673-1.204.859-1.878 1.043-3.781.77-66.708.166-73.97-.099-1.182-.46-2.135-1.057-3.158l20.113-.052c.052.081.112.157.157.242 1.492 2.796.596 6.862-.239 9.727 1.943-.927 3.565-2.686 5.245-4.032 4.2-3.373 7.79-5.489 12.79-7.381"/><path fill="#FEFEFE" d="M913.623 344.696c22.68-4.614 44.77 10.153 49.175 32.874 4.406 22.721-10.565 44.673-33.326 48.869-22.467 4.141-44.074-10.593-48.423-33.02-4.348-22.427 10.187-44.169 32.574-48.723"/><path fill="#60BB23" d="M917.174 360.62c4.939-.757 9.349-.635 13.711 2.053 5.203 3.207 8.165 8.573 9.497 14.421 1.842 8.086 1.149 18.329-3.498 25.414-2.887 4.402-6.509 6.787-11.615 7.857-2.942 1.036-6.668.439-9.551-.562-4.662-1.619-8.001-5.55-10.015-9.938-3.606-7.857-3.873-18.576-.805-26.64 2.416-6.35 6.19-9.838 12.276-12.605"/><path fill="#FEFEFE" d="M611.809 344.404c9.469-.496 20.04-1.306 29.025 2.313 4.776 1.923 8.709 5.142 10.94 9.842 5.847 12.316 1.505 35.129 2.386 49.085.441 6.985 1.918 12.986 4.696 19.407l-20.985.042-2.608-9.011c-5.788 5.597-12.48 9.749-20.58 10.828-8.598 1.145-16.165-1.034-22.982-6.282-3.762-3.905-6.416-8.722-7.07-14.156-4.02-33.414 41.21-24.759 48.557-34.977.838-1.165 1.177-2.212.851-3.656-.471-2.094-3.339-5.388-5.234-6.347-3.488-1.764-11.06-1.895-14.666-.634-4.598 1.609-6.338 4.993-8.328 9.166-6.446-.763-12.886-1.859-19.306-2.818 1.356-3.86 2.717-7.642 5.01-11.071 5.007-7.486 11.841-10.066 20.294-11.731"/><path fill="#60BB23" d="m632.573 388.518.755.383c.96 3.35.756 7.913-.517 11.18-1.687 4.33-4.975 7.799-9.288 9.551-4.817 1.957-8.747 1.307-13.416-.595-1.782-1.774-3.517-3.545-4.197-6.044-.498-1.833-.418-3.556.625-5.189 4.067-6.37 19.104-7.735 26.038-9.286"/><path fill="#FEFEFE" d="M298.9 344.406c9.48-.578 20.29-1.294 29.257 2.355 5.068 2.062 9.107 5.546 11.271 10.631 5.072 11.913.965 38.235 2.361 52.324.55 5.543 2.135 10.255 4.257 15.337l-20.907.036c-.993-2.944-1.708-6.035-2.535-9.033-6.137 5.515-12.383 9.805-20.815 10.868-8.495 1.071-15.93-1.008-22.691-6.165-2.419-2.493-4.621-5.401-5.799-8.698-2.105-5.897-1.939-13.893.903-19.535 7.49-14.871 32.986-14.856 47.037-19.703-.223-2.036-.382-4.227-1.058-6.172-.85-2.445-3.063-4.296-5.315-5.446-3.847-1.964-8.586-1.948-12.61-.55-5.179 1.799-6.971 4.632-9.221 9.435l-19.318-2.905c1.266-3.649 2.614-7.268 4.707-10.54 4.98-7.784 11.842-10.428 20.476-12.239"/><path fill="#60BB23" d="m319.8 388.487.724.217c.084.201.174.4.251.603 1.079 2.864-.137 9.631-1.336 12.39-1.612 3.708-4.541 6.609-8.335 8.05-4.841 1.838-9.246 1.175-13.865-.823-1.833-1.779-3.456-3.611-4.154-6.137-.477-1.728-.323-3.407.661-4.936 4.122-6.408 19.052-7.72 26.054-9.364"/><path fill="#FEFEFE" d="M694.487 344.411c8.844-.987 20.21-1.05 28.49 2.496 8.784 3.761 12.625 10.631 15.904 19.1l-19.845 3.236a43 43 0 0 0-1.036-2.359c-1.668-3.467-4.265-5.634-7.895-6.882-4.909-1.688-11.235-1.46-15.887.92-2.02 1.034-3.402 2.291-4.105 4.505.322 1.701.394 2.266 1.773 3.444 7.79 6.658 29.925 6.543 41.4 14.617 4.309 3.032 6.927 7.165 7.746 12.377a25.1 25.1 0 0 1-4.849 19.294c-5.688 7.476-14.158 10.317-23.109 11.585-9.268.816-19.436.568-28.07-3.215-9.522-4.172-14.278-11.346-17.897-20.674a1060 1060 0 0 1 21.009-2.794c1.351 2.669 2.319 5.498 4.699 7.452 4.713 3.868 10.914 4.986 16.861 4.347 3.158-.34 6.811-1.366 8.776-4.06 1.213-1.662 1.858-4.049 1.325-6.076-.358-1.357-1.167-2.309-2.381-2.965-9.983-5.391-25.843-4.796-37.579-12.454-4.625-3.018-8.201-7.309-9.258-12.827-1.15-6.003.294-13.116 3.785-18.141 4.783-6.886 12.286-9.426 20.143-10.926"/><path fill="#FEFEFE" d="M825.842 344.576c6.781-.716 14.062-.979 20.758.471 7.923 1.716 14.733 6.058 19.066 12.979 1.836 2.932 4.837 7.556 4.017 11.078-5.642 2.174-14.338 2.244-20.508 2.942.084-.431.147-.86.133-1.301-.074-2.227-1.52-4.769-3.044-6.335-2.88-2.961-6.771-4.414-10.864-4.357-4.291.059-8.267 1.713-11.187 4.876-5.607 6.074-6.048 15.637-5.594 23.488.394 6.827 1.89 14.425 7.33 19.107 3.047 2.623 7.196 3.875 11.194 3.517 5.054-.453 9.792-4.422 11.791-9.009.832-1.908 1.116-4.141 2.448-5.767l1.397.062c5.883.244 12.391 1.448 18.175 2.553.655 2.509-1.053 6.412-2.092 8.694-3.672 8.061-9.863 14.166-18.234 17.139-10.159 3.609-23.467 3.504-33.185-1.191-8.757-4.231-15.09-12.001-18.128-21.169-3.956-11.935-3.441-28.057 2.252-39.264 5.379-10.591 13.438-15.083 24.275-18.513"/><path fill="#FEFEFE" d="M425.233 319.39c.5.1.721.449 1.088.79.626 8.512.191 17.307.15 25.852l14.192-.006-.007 16.049-14.187.016c-.04 8.152-2.071 41.546 2.233 46.585 3.918 2.142 7.827.458 11.808-.65.771 5.37 1.195 10.766 2.143 16.115-4.362 1.385-8.531 2.293-13.063 2.897a47 47 0 0 1-1.845.036c-6.286.008-12.556-.623-17.181-5.384-2.394-2.465-3.812-5.631-4.547-8.958-2.469-11.164-.927-37.669-.888-50.676l-9.577.062-.004-16.027 9.582-.091-.04-15.033z"/><path fill="#FEFEFE" d="M680.091 94.547c16.103-2.348 31.072 8.767 33.48 24.86s-8.652 31.103-24.736 33.571c-16.17 2.482-31.277-8.649-33.698-24.827s8.766-31.244 24.954-33.605"/><path fill="#FEFEFE" d="m362.155 316.064 21.409-.012-.023 108.977-21.361.054z"/><path fill="#FEFEFE" d="m454.999 346.063 20.991-.042-.008 79.049-20.981.016z"/><path fill="#FEFEFE" d="M758.955 404.049c6.843-.25 13.72-.093 20.568-.068.378.571.649 1.132.811 1.804.955 3.964 1.016 15.692-1.109 19.015-6.145 1.431-14.761.31-21.149.281 2.571-4.645 1.194-15.615.879-21.032"/></svg>