<?xml version="1.0" encoding="utf-8" ?>
<svg xmlns="http://www.w3.org/2000/svg" xmlns:xlink="http://www.w3.org/1999/xlink" width="677" height="679">
	<path fill="#60BA22" d="M0 0L677 0L677 678.42C676.709 678.565 676.415 678.743 676.101 678.834C673.788 679.505 651.708 679.001 647.874 679.001L554.269 679.004L186.581 679.002L64.058 679.004C43.6547 679.004 22.5285 679.539 2.21936 678.975C1.30189 678.949 0.787562 678.866 0 678.42L0 0Z"/>
	<path fill="#FEFEFE" d="M517.626 275.335L520.767 275.287L520.771 394.013L501.819 394.064L501.839 294.47L175.038 295.034L175.036 309.827L175.032 394.045L156.135 394.057L156.129 275.992L410.656 275.668L478.957 275.539C491.83 275.519 504.762 275.758 517.626 275.335Z"/>
	<path fill="#FEFEFE" d="M335.953 219.286C342.699 217.927 349.274 222.275 350.665 229.014C352.055 235.753 347.739 242.349 341.006 243.772C334.229 245.204 327.579 240.852 326.179 234.067C324.779 227.283 329.163 220.654 335.953 219.286Z"/>
</svg>
