<?xml version="1.0" encoding="utf-8" ?>
<svg xmlns="http://www.w3.org/2000/svg" xmlns:xlink="http://www.w3.org/1999/xlink" width="500" height="500">
	<path fill="#FEFEFE" d="M430.836 185.648L431.255 185.728C431.409 188.359 431.174 191.089 431.155 193.731L431.113 210.632L431.089 269.563C431.073 281.02 430.685 292.633 431.322 304.071C424.894 304.016 418.273 303.65 411.874 304.292C411.534 298.684 411.813 292.9 411.811 287.277L411.792 253.962L411.818 221.987C411.827 216.357 411.531 210.645 411.944 205.032C407.111 205.845 399.863 205.299 394.733 205.283L360.671 205.257L231.88 205.271L129.135 205.301L100.805 205.289C96.3563 205.301 91.3439 205.858 86.9702 205.174C87.6485 210.17 87.1169 218.068 87.0959 223.375L87.0593 274.406C87.045 284.298 86.6959 294.316 87.2526 304.191C80.9764 304.071 73.8957 303.488 67.7156 304.504C67.3981 300.621 67.5759 296.621 67.586 292.722L67.6233 273.323L67.6014 217.962C67.5996 207.339 67.8824 196.633 67.4432 186.022C88.0511 186.388 108.707 186.199 129.32 186.204L256.479 186.026L366.503 185.948L405.813 185.813C414.148 185.785 422.503 185.875 430.836 185.648Z"/>
	<path fill="#FEFEFE" d="M247.778 124.242C254.643 123.328 260.951 128.149 261.871 135.013C262.791 141.878 257.976 148.19 251.112 149.117C244.24 150.044 237.918 145.221 236.996 138.348C236.075 131.474 240.903 125.157 247.778 124.242Z"/>
</svg>
