<svg xmlns="http://www.w3.org/2000/svg" width="1369" height="756"><path fill="#FEFEFE" d="M1165.28 210.891c1.11-.05 2.2.057 3.31.145.14.179.39.475.5.703 1.02 2.269 1.92 306.341-.7 313.459-13.67.497-27.41.195-41.09.155.37-.549.65-1.013.85-1.645 2.12-6.659.78-32.495.77-40.826l-.15-89.265.1-84.604c.05-16.544.46-33.193-.06-49.726-.07-2.551-.1-4.952-1.37-7.229l-605.298 1.097c-93.994.233-188.104-.799-282.083.443l-.046 34.832c.087 78.924-1.219 158.034.043 236.939l-40.975.043.103-312.261c11.04-.815 22.415-.396 33.492-.422l58.771-.086 184.455-.3 468.266-.991c73.662-.167 147.472.83 221.112-.461"/><path fill="#FEFEFE" d="M535.198 344.387c9.416-.757 18.08.816 25.493 7.113 8.203 6.97 12.051 17.415 12.866 27.921 1.021 13.159-1.424 27.003-10.317 37.239-5.127 5.902-12.015 9.929-19.908 10.425-10.32.649-18.423-4.419-25.873-10.898.59 6.411.333 13.024.379 19.466q-.093 9.798.196 19.594c-7.283-.171-14.594-.028-21.88-.019-.567-36.294-.245-72.673-.11-108.974l20.037-.222-.055 10.414c5.223-6.411 11.222-10.038 19.172-12.059m1.856 66.727c5.687-1.917 9.356-4.772 12.09-10.213 4.013-7.985 4.275-19.337 1.3-27.691-1.721-4.833-5.061-9.355-9.85-11.485-2.65-1.179-5.576-1.401-8.446-1.327-5.443 1.756-9.104 4.611-11.79 9.724-3.982 7.582-4.173 19.213-1.512 27.235 1.649 4.973 4.945 9.501 9.72 11.857 2.729 1.347 5.487 1.685 8.488 1.9"/><path fill="#FEFEFE" d="M1042.43 355.588c6.29-3.134 10.76-8.652 17.84-10.504 7.34-1.921 15.79-1.276 22.38 2.649 5.56 3.311 8.86 8.67 10.31 14.883 1.71 7.293 2.52 57.441-.61 62.442l-21.52.009c.58-.919.99-1.875 1.16-2.952 1.41-8.611 1.75-52.962-2.22-57.936-1.69-2.12-4.01-3.513-6.7-3.881-3.38-.462-6.96.541-9.66 2.592-10.17 7.716-6.63 26.759-6.64 38.056 0 5.354-.6 10.525-1.3 15.825.33.485.58 1.006.77 1.566.76 2.258.32 4.372-.77 6.416-7.11.909-14.9.297-22.09.311l.18-.373c.07-.138.14-.271.21-.41 2.53-5.272 2.2-52.847-.14-58.667-.75-1.838-2.83-3.549-4.64-4.308-3.22-1.348-7.46-1.202-10.64.189-19.287 8.449-3.85 47.57-10.483 63.075-.061.143-.131.281-.197.421l-22.319.051c.111-.158.229-.313.334-.476 2.548-3.976 2.584-71.351.855-78.657 5.577.281 15.107-1.784 19.958.81 1.045 2.136.452 5.053.254 7.383.248.079 13.058-7.939 18.498-9.524 7.26-.899 15.74-.243 21.95 3.974 2.35 1.601 4.72 4.159 5.23 7.036"/><path fill="#FEFEFE" d="M914.745 344.571c22.532-3.927 44.005 11.082 48.059 33.59s-10.834 44.065-33.32 48.246c-22.666 4.213-44.434-10.819-48.52-33.508-4.086-22.688 11.069-44.37 33.781-48.328m9.842 65.786c5.622-1.264 9.508-3.834 12.57-8.781 4.413-7.129 4.924-17.389 2.885-25.352-1.424-5.56-4.382-10.636-9.429-13.606-4.325-2.544-8.76-2.738-13.618-1.999-6.848 4.001-11.169 8.391-13.332 16.307-2.222 8.133-1.26 17.55 3.073 24.839 2.473 4.162 5.992 7.646 10.814 8.798 2.384.569 4.729.792 7.037-.206"/><path fill="#FEFEFE" d="M308.551 343.885c6.804.058 13.787.337 20.069 3.232 19.87 9.155 12.229 41.12 13.199 58.762.376 6.846 1.864 12.763 4.273 19.154-7.187.161-14.396.076-21.585.105l-2.23-8.542c-2.33 1.984-4.732 4.037-7.379 5.583-7.764 4.534-17.042 6.225-25.779 3.739-7.275-2.071-11.886-6.436-15.473-12.928-2.02-6.908-2.681-14.336.886-20.891 8.048-14.787 32.61-15.312 47.049-19.679a88 88 0 0 0-.753-3.115c-.955-3.606-2.741-6.014-6.021-7.869-3.235-1.828-7.137-2.11-10.687-1.116-5.676 1.589-8.428 4.989-11.261 9.9-6.244-1.276-12.72-1.959-19.03-2.892 1.553-5.191 3.542-10.123 7.228-14.186 7.224-7.963 17.43-8.862 27.494-9.257m-10.229 65.396c4.738 1.408 9.585 2.103 14.12-.33 3.936-2.112 6.509-6.068 7.675-10.301.634-2.301 1.294-6.514.058-8.694-.113-.2-.247-.387-.371-.58-.902-.163-1.709-.368-2.621-.144-6.917 1.283-19.225 2.672-23.409 9.089-.953 1.462-1.205 3.092-.672 4.762.897 2.808 2.932 4.522 5.22 6.198"/><path fill="#FEFEFE" d="M612.491 344.363c9.079-.806 19.93-1.19 28.414 2.587 20.991 9.346 12.804 39.054 13.552 57.045.31 7.462 1.81 14.045 4.522 20.984l-21.058.087c-1.122-2.767-1.909-5.436-2.54-8.353-6.467 5.329-13.209 9.262-21.698 10.151-8.707.912-15.96-1.6-22.656-7.094-3.521-3.485-5.787-8.311-6.477-13.193-4.851-34.337 40.222-23.451 48.018-35.082.979-1.461 1.314-3.147.866-4.856-.555-2.112-2.361-3.673-4.236-4.651-4.361-2.276-9.729-2.469-14.345-.9-4.83 1.641-6.459 4.517-8.663 8.9-6.794-.642-13.472-1.758-20.195-2.902 1.441-3.619 2.907-7.208 5.077-10.468 5.289-7.943 12.464-10.546 21.419-12.255m-1.211 65.059c4.732 1.303 9.121 1.753 13.56-.73 4.233-2.367 7.135-6.734 8.362-11.363.695-2.622.921-5.563-.475-7.988-.934-.138-1.78-.316-2.716-.088-7.028 1.114-18.851 2.665-23.294 8.811-1.016 1.405-1.384 2.988-.935 4.681.72 2.71 3.238 5.173 5.498 6.677"/><path fill="#FEFEFE" d="M695.11 344.394c7.997-.653 16.838-1.114 24.573 1.305 10.478 3.277 14.88 11.175 19.712 20.261q-10.05 1.493-20.053 3.284c-.871-1.475-1.749-2.996-2.81-4.343-2.681-3.405-6.866-5.396-11.131-5.874-4.059-.455-9.363.359-12.562 3.097-1.404 1.201-1.938 2.227-2.096 4.053 2.299 8.712 32.682 10.126 42.482 17.545 4.364 3.304 7.188 7.929 7.897 13.383.855 6.582-1.374 13.454-5.5 18.597-6.295 7.847-16.046 10.176-25.565 11.184-7.738.818-16.699-.086-23.885-3.006-9.976-4.053-15.434-11.514-19.497-21.122l21.293-2.558c1.466 2.653 3.054 5.367 5.43 7.304 4.336 3.533 10.046 5.079 15.575 4.508 3.332-.344 7.374-1.475 9.447-4.322 1.096-1.504 1.375-3.076 1.002-4.887-.429-2.088-1.527-3.587-3.349-4.684-8.936-5.381-24.673-4.67-36.324-11.94-4.538-2.832-7.986-6.705-9.158-12.029-1.353-6.145.005-13.406 3.509-18.63 4.855-7.238 12.893-9.634 21.01-11.126"/><path fill="#FEFEFE" d="M826.474 344.575c7.289-.662 14.756-.851 21.863 1.172 8.51 2.424 14.761 7.512 19.081 15.186 1.285 2.284 2.975 5.359 2.217 8.058-5.894 2.624-14.049 2.639-20.458 3.209.199-1.128-.13-2.131-.462-3.2-1.086-3.503-3.513-5.722-6.697-7.377-3.32-1.726-6.954-2.411-10.573-1.207-4.683 1.557-8.214 5.64-10.251 10.003-3.954 8.467-3.792 20.62-.464 29.279 1.735 4.516 4.684 8.393 9.247 10.29 16.312 6.781 17.726-11.861 22.161-13.724 5.783.092 13.537.628 18.921 2.694.099 3.622-1.086 6.844-2.706 10.046-4.157 8.212-10.608 13.356-19.302 16.105-10.251 3.242-23.015 2.8-32.594-2.242-8.627-4.541-14.765-12.455-17.571-21.732-3.723-12.309-2.981-27.501 3.186-38.897 5.417-10.011 13.881-14.608 24.402-17.663"/><path fill="#FEFEFE" d="m425.282 319.464.934.712c1.048 8.189.354 17.383.362 25.684 4.74.14 9.456.016 14.195-.121-.25 5.49-.11 10.99-.034 16.483l-14.354.008c.165 10.274-2.838 38.858 3.12 46.185 3.388 1.945 7.385.568 10.946-.239a219 219 0 0 0 2.575 15.743c-4.332 1.609-8.813 2.331-13.398 2.687l-.665.007c-6.843.051-12.934.047-18.108-5.227-9.729-9.919-5.937-45.018-5.759-59.143l-9.768.045c-.253-5.304-.022-10.683.038-15.994l9.433-.117c-.015-5.07.137-10.15.22-15.22 6.843-3.573 13.504-7.736 20.263-11.493"/><path fill="#FEFEFE" d="M684.136 94.102c16.183-.14 29.479 12.741 29.853 28.92.373 16.179-12.315 29.659-28.487 30.265a29.603 29.603 0 1 1-1.366-59.185"/><path fill="#FEFEFE" d="m362.264 316.193 21.334-.095.038 108.963-21.759.047q-.394-54.459.387-108.915"/><path fill="#FEFEFE" d="M455.056 346.219q10.484.063 20.966-.165l.02 78.982-21.204.017c-.233-26.155-.931-52.715.218-78.834"/><path fill="#FEFEFE" d="m759.793 404.073 19.766-.117c.721.971 1.057 1.907 1.239 3.089.659 4.279 1.219 12.775-1.524 16.442l-.181 1.089c-4.825 2.345-16.236.73-21.79.577 4.303-5.682-.142-14.925 2.49-21.08"/></svg>